<svg version="1" xmlns="http://www.w3.org/2000/svg" width="682.667" height="682.667" viewBox="0 0 512.000000 512.000000"><path d="M275.6 56c-3.5 6.5-4.4 7.4-11.2 11.3-4 2.3-7.4 4.5-7.4 4.8 0 .3 1.2 1.2 2.8 2 1.5.8 2.9 1.6 3.2 1.9.3.3 2.3 1.4 4.5 2.5 3.7 1.9 5.6 4.4 10.7 14.2.6 1.3 1.5 2.3 1.9 2.3.4 0 2.1-2.8 3.9-6.3 4.3-8.2 4.2-8.1 12.1-12.4 3.8-2 6.9-4 6.9-4.3 0-.3-3.3-2.3-7.2-4.5-6.7-3.7-7.6-4.6-11.3-11.3-2.2-3.9-4.2-7.2-4.5-7.2-.3 0-2.3 3.2-4.4 7zM336.5 101.6c-4.8 8.7-7.8 13-9.5 13.8-4.3 1.9-22 12.1-22 12.6 0 .3 5.6 3.6 12.4 7.4l12.5 6.7 6.7 12.5c3.8 6.8 7.1 12.4 7.4 12.4.3 0 3.6-5.6 7.4-12.5l6.9-12.5 12.4-6.7c6.7-3.7 12.3-7.1 12.3-7.5 0-.3-.9-1-2-1.3-1.1-.3-2.6-1.2-3.3-1.8-.7-.7-5.3-3.3-10.2-5.8l-9-4.7-7-12.6c-3.8-6.9-7.2-12.6-7.5-12.6-.3 0-3.7 5.7-7.5 12.6zM271.3 174.2c-.6 1.3-15.1 44.8-32.3 96.8-17.1 52-31.5 95.4-32 96.5-1.2 2.8-17 50.9-17 51.8 0 .4 7.1.7 15.8.7h15.8l10.3-31.2c5.7-17.2 10.8-31.9 11.4-32.6.5-.6.7-1.2.4-1.2-.3 0 11-34.1 24.9-75.8 14-41.6 25.7-76.6 25.9-77.7.3-1.1 2.5-7.8 5-15 2.5-7.1 4.5-13.3 4.5-13.7 0-.4-7.1-.8-15.8-.8-15.5 0-15.9.1-16.9 2.2zM159.5 205.5c-4.4 2.4-12.7 6.9-18.5 10-5.8 3.1-13.6 7.4-17.5 9.5-3.8 2.1-9.2 5-12 6.5-2.7 1.5-7.7 4.2-11 6-3.3 1.8-8.2 4.5-11 6-2.7 1.6-8.1 4.5-12 6.5-3.8 2-9.5 5.1-12.5 6.7-15.6 8.6-24.3 13.3-24.7 13.3-.2 0-2.1 1.1-4.3 2.5l-4 2.5v15.5c0 10 .4 15.5 1 15.5s4.5 2 8.8 4.3c4.2 2.4 11.1 6.2 15.2 8.4 9.3 5 50.8 27.5 53.5 29.1 1.1.6 7.2 3.9 13.5 7.3s13.5 7.3 16 8.7c2.5 1.4 7.4 4 11 5.9 3.6 1.9 8.9 4.8 11.8 6.5l5.2 2.9v-38.6l-12.3-6.3c-6.7-3.4-22.5-11.6-35.2-18.2-12.6-6.6-29-15-36.2-18.7-7.3-3.8-13.3-7-13.3-7.3 0-.3 10-5.7 22.3-12 56.1-29 72.9-37.9 74-38.9.4-.4.6-9.1.5-19.3l-.3-18.5-8 4.2zM332.2 220.1l.3 19.3 8 4.2c4.4 2.3 12.5 6.5 18 9.3 5.5 2.8 17.7 9.1 27 14 9.4 5 22.9 12.1 30.2 15.8 10.1 5.2 12.9 7.1 12 7.9-.7.6-10.6 6-22.2 11.9-11.5 5.9-24.1 12.4-28 14.5-9.3 5-40.4 21.1-43.2 22.4-2.3 1.1-2.3 1.4-2.3 20.4V379l17.8-9.1c39.4-20.3 52.9-27.2 78.7-40.4 14.9-7.6 29.8-15.3 33.3-17.2 3.5-1.8 6.9-3 7.5-2.7.7.4.8.3.4-.1-.4-.5.7-1.6 2.5-2.5l3.3-1.5.3-15.5.2-15.5-6.2-3.1c-6.2-3-41.3-20.9-71.3-36.4-8.2-4.3-26.6-13.7-40.8-20.9L332 200.8l.2 19.3z"/></svg>